<svg width="1440" height="2479" viewBox="0 0 1440 2479" fill="none" xmlns="http://www.w3.org/2000/svg">
<path d="M1288.11 200.046C1278.94 199.913 1270.29 195.745 1264.48 188.653L1201.53 111.908C1194.99 103.939 1192.82 93.2526 1195.72 83.3638L1262.52 -143.868C1266.34 -156.856 1278.11 -165.892 1291.64 -166.226L1641.12 -174.841C1657.11 -175.235 1670.79 -163.468 1672.8 -147.607L1706.27 116.984C1707.47 126.442 1704.27 135.927 1697.59 142.728L1645.65 195.595C1639.68 201.67 1631.49 205.036 1622.97 204.913L1288.11 200.046Z" stroke="rgba(255,255,255,0.1)" stroke-width="1.56863"/>
<path d="M969.575 134.856C954.513 137.283 939.74 129.109 933.796 115.058L826.859 -137.707C822.275 -148.543 823.782 -160.997 830.818 -170.427L932.815 -307.123C941.185 -318.34 955.701 -323.087 969.081 -318.984L1217.85 -242.684C1226.36 -240.074 1233.46 -234.151 1237.55 -226.248L1262.81 -177.481C1266.74 -169.899 1267.59 -161.094 1265.18 -152.902L1196.97 79.1289C1193.37 91.3739 1183.05 100.462 1170.45 102.492L969.575 134.856Z" stroke="rgba(255,255,255,0.1)" stroke-width="1.56863"/>
<path d="M603.057 201.897C591.795 203.459 580.785 197.693 575.655 187.546L516.667 70.8587C515.145 67.8473 514.209 64.5738 513.91 61.2128L499.613 -99.4906C498.833 -108.255 502.437 -116.838 509.24 -122.419L564.705 -167.921C570.023 -172.284 576.824 -174.417 583.681 -173.874L803.351 -156.478C813.249 -155.694 821.886 -149.465 825.755 -140.321L938.753 126.773C941.942 134.309 940.778 142.983 935.717 149.412V149.412C932.126 153.974 926.908 156.967 921.158 157.765L603.057 201.897Z" stroke="rgba(255,255,255,0.1)" stroke-width="1.56863"/>
<path d="M480.439 -118.669C491.245 -115.551 499.024 -106.113 500.021 -94.9108L512.663 47.1946C513.683 58.6549 507.392 69.52 496.945 74.341L177.299 221.852C163.826 228.07 147.854 222.359 141.378 209.007L101.511 126.821C97.4973 118.547 97.9297 108.806 102.661 100.92L259.915 -161.213C266.269 -171.805 278.956 -176.796 290.824 -173.372L480.439 -118.669Z" stroke="rgba(255,255,255,0.1)" stroke-width="1.56863"/>
<path d="M105.545 96.1076C99.4004 106.351 87.0489 111.065 75.6419 107.521L-162.86 33.4207C-171.42 30.7611 -177.997 23.8657 -180.25 15.1895L-212.288 -108.227C-214.058 -115.044 -212.976 -122.288 -209.291 -128.291L-162.201 -205C-157.59 -212.51 -149.479 -217.161 -140.669 -217.347L228.154 -225.151C237.503 -225.348 246.232 -220.493 250.996 -212.447L262.825 -192.467C267.672 -184.281 267.642 -174.097 262.748 -165.94L105.545 96.1076Z" stroke="rgba(255,255,255,0.1)" stroke-width="1.56863"/>
<path d="M1276.62 462.472C1267.64 458.471 1262.04 449.375 1262.49 439.555L1272.57 222.934C1273.17 210.059 1283.88 199.985 1296.77 200.172L1610.79 204.736C1624.6 204.936 1635.36 216.775 1634.24 230.539L1604.33 599.12C1604.2 600.682 1603.51 602.143 1602.38 603.23V603.23C1600.49 605.044 1597.69 605.535 1595.3 604.47L1276.62 462.472Z" stroke="rgba(255,255,255,0.1)" stroke-width="1.56863"/>
<path d="M1262.25 444.856C1261.92 451.919 1258.95 458.601 1253.93 463.583L1138.59 578.086C1133.08 583.558 1125.56 586.518 1117.8 586.27L935.449 580.435C919.6 579.928 907.276 566.474 908.158 550.641L929.623 165.418C929.945 159.628 932.042 154.078 935.629 149.522L937.104 147.649C941.487 142.081 947.803 138.364 954.799 137.237L1175.05 101.752C1184.97 100.153 1195 103.95 1201.37 111.722L1266.77 191.449C1271.2 196.848 1273.47 203.696 1273.14 210.67L1262.25 444.856Z" stroke="rgba(255,255,255,0.1)" stroke-width="1.56863"/>
<path d="M755.12 697.233C740.938 708.258 720.814 707.2 707.867 694.749L518.666 512.807C509.099 503.607 505.341 489.905 508.878 477.112L577.897 227.424C581.741 213.517 593.486 203.226 607.778 201.244L886.608 162.56C909.151 159.433 928.943 177.661 927.677 200.386L907.468 563.078C906.886 573.518 901.814 583.195 893.558 589.613L755.12 697.233Z" stroke="rgba(255,255,255,0.1)" stroke-width="1.56863"/>
<path d="M579.059 194.281C582.387 200.864 583.142 208.45 581.176 215.56L509.081 476.374C505.561 489.108 494.041 497.977 480.83 498.124L208.944 501.15C193.674 501.32 180.772 489.865 179.132 474.682L155.326 254.229C153.96 241.572 160.824 229.455 172.383 224.12L488.383 78.2921C502.879 71.6025 520.069 77.5905 527.272 91.8386L579.059 194.281Z" stroke="rgba(255,255,255,0.1)" stroke-width="1.56863"/>
<path d="M98.4811 585.431C87.7744 596.194 71.4842 599.123 57.6992 592.763L-181.781 482.268C-194.191 476.542 -202.312 464.308 -202.77 450.648L-214.409 103.254C-214.642 96.2805 -212.854 89.3888 -209.258 83.4096L-191.245 53.4557C-182.662 39.1818 -165.438 32.6183 -149.532 37.5601L80.1138 108.909C89.6612 111.875 97.5542 118.662 101.918 127.657L150.298 227.393C152.112 231.134 153.268 235.159 153.714 239.292L180.171 484.297C181.343 495.145 177.553 505.942 169.857 513.678L98.4811 585.431Z" stroke="rgba(255,255,255,0.1)" stroke-width="1.56863"/>
<path d="M1350.63 938.9C1334.71 942.675 1318.24 935.294 1310.47 920.901L1142.81 610.451C1135.19 596.344 1137.77 578.905 1149.15 567.61L1244.16 473.283C1254.75 462.767 1270.72 459.841 1284.35 465.916L1570.73 593.52C1587.12 600.821 1595.67 619.032 1590.83 636.305L1522.83 878.91C1519.28 891.565 1509.15 901.299 1496.36 904.332L1350.63 938.9Z" stroke="rgba(255,255,255,0.1)" stroke-width="1.56863"/>
<path d="M1295.15 976.19C1288.61 983.281 1279.51 987.464 1269.87 987.808L935.707 999.733C924.869 1000.12 914.43 995.621 907.268 987.479L737.219 794.149C731.072 787.16 727.856 778.069 728.242 768.769L729.72 733.188C730.162 722.562 735.259 712.67 743.655 706.142L896.247 587.52C902.905 582.343 911.164 579.657 919.594 579.927L1109.18 585.994C1122.04 586.405 1133.72 593.625 1139.84 604.95L1311.38 922.58C1318.72 936.171 1316.61 952.924 1306.14 964.277L1295.15 976.19Z" stroke="rgba(255,255,255,0.1)" stroke-width="1.56863"/>
<path d="M582.485 935.516C575.515 942.827 565.804 946.889 555.703 946.718L209.896 940.86C195.977 940.624 183.431 932.419 177.635 919.763L76.8596 699.717C74.2454 694.009 73.1627 687.718 73.7179 681.465L79.496 616.382C80.2434 607.964 83.9166 600.073 89.8772 594.08L171.588 511.939C178.275 505.216 187.337 501.389 196.819 501.284L488.34 498.04C497.823 497.934 506.969 501.559 513.804 508.132L718.678 705.146C726.144 712.325 730.172 722.36 729.742 732.708L728.207 769.662C727.843 778.427 724.305 786.761 718.251 793.111L582.485 935.516Z" stroke="rgba(255,255,255,0.1)" stroke-width="1.56863"/>
<path d="M74.2932 674.982C73.3874 685.184 68.1973 694.523 60.0119 700.68L-230.987 919.556C-239.235 925.76 -249.741 928.143 -259.859 926.105L-426.217 892.605C-442.181 889.39 -454.026 875.899 -455.149 859.653L-474.209 584.002C-474.692 577.009 -473.132 570.025 -469.718 563.902L-467.243 559.461C-462.577 551.093 -454.781 544.918 -445.566 542.294L-214.91 476.6C-206.595 474.232 -197.708 474.921 -189.858 478.543L57.5334 592.688C71.3996 599.085 79.7512 613.505 78.4007 628.716L74.2932 674.982Z" stroke="rgba(255,255,255,0.1)" stroke-width="1.56863"/>
<path d="M1276.32 1356.77C1266.85 1351.2 1261.33 1340.76 1262.06 1329.8L1284.25 997.497C1284.69 990.88 1287.38 984.613 1291.88 979.738L1317.63 951.819C1321.55 947.569 1326.65 944.586 1332.28 943.251L1502.02 902.989C1511.44 900.756 1521.35 903.359 1528.45 909.93L1577.08 954.928C1582.03 959.502 1585.23 965.651 1586.14 972.324L1627.25 1273.87C1628 1279.33 1627.17 1284.88 1624.88 1289.89L1584.55 1377.98C1579.92 1388.08 1569.93 1394.66 1558.82 1394.92L1357.78 1399.63C1352.37 1399.75 1347.03 1398.37 1342.37 1395.62L1276.32 1356.77Z" stroke="rgba(255,255,255,0.1)" stroke-width="1.56863"/>
<path d="M1022.34 1455.62C1010.14 1461.14 995.749 1457.69 987.372 1447.24L903.491 1342.61C898.899 1336.88 896.622 1329.64 897.111 1322.32L916.821 1026.76C917.822 1011.75 930.009 999.937 945.038 999.4L1252.46 988.43C1269.83 987.81 1283.92 1002.35 1282.77 1019.69L1262.04 1330.16C1261.32 1340.95 1254.72 1350.47 1244.87 1354.93L1022.34 1455.62Z" stroke="rgba(255,255,255,0.1)" stroke-width="1.56863"/>
<path d="M898.496 1301.59C897.297 1319.58 882.197 1333.46 864.173 1333.15L568.349 1328C548.511 1327.65 533.233 1310.38 535.313 1290.65L570.342 958.437C571.125 951.012 574.343 944.055 579.495 938.652L702.167 809.981C715.86 795.618 738.92 796.081 752.026 810.981L909.302 989.79C915.245 996.546 918.249 1005.39 917.651 1014.37L898.496 1301.59Z" stroke="rgba(255,255,255,0.1)" stroke-width="1.56863"/>
<path d="M532.061 946.318C553.282 946.677 569.631 965.153 567.406 986.261L532.792 1314.54C531.918 1322.83 528.204 1330.56 522.279 1336.43L381.046 1476.32C366.734 1490.5 343.598 1490.25 329.601 1475.76L129.605 1268.79C121.134 1260.02 117.651 1247.58 120.34 1235.69L180.631 969.147C184.409 952.444 199.387 940.682 216.509 940.973L532.061 946.318Z" stroke="rgba(255,255,255,0.1)" stroke-width="1.56863"/>
<path d="M121.858 1228.98C118.387 1244.32 105.391 1255.66 89.7158 1257.02L-70.4191 1270.91C-85.9646 1272.26 -100.621 1263.48 -106.772 1249.14L-232.766 955.393C-239.335 940.079 -234.587 922.26 -221.271 912.244L36.9664 718.01C55.4138 704.134 81.9625 710.863 91.5738 731.85L182.028 929.361C185.329 936.568 186.17 944.661 184.421 952.393L121.858 1228.98Z" stroke="rgba(255,255,255,0.1)" stroke-width="1.56863"/>
<path d="M1375.13 1695.73C1367.68 1690.79 1363.02 1682.6 1362.6 1673.67L1350.88 1428.55C1350.13 1412.8 1362.5 1399.52 1378.26 1399.15L1560.09 1394.89C1570.48 1394.65 1580.16 1400.17 1585.24 1409.24L1732.97 1673.08C1738.82 1683.52 1737.4 1696.52 1729.44 1705.46L1619.63 1828.82C1610.34 1839.25 1594.8 1841.27 1583.16 1833.56L1375.13 1695.73Z" stroke="rgba(255,255,255,0.1)" stroke-width="1.56863"/>
<path d="M1134.76 1765.16C1124.52 1768.62 1113.21 1765.21 1106.59 1756.68L988.682 1604.71C984.436 1599.23 982.612 1592.26 983.635 1585.41L999.571 1478.67C1000.84 1470.15 1006.35 1462.86 1014.2 1459.31L1248.89 1353.11C1256.4 1349.71 1265.1 1350.17 1272.21 1354.35L1337.69 1392.87C1345.06 1397.21 1349.75 1404.97 1350.16 1413.52L1362.36 1668.76C1362.9 1680.08 1355.88 1690.38 1345.15 1694L1134.76 1765.16Z" stroke="rgba(255,255,255,0.1)" stroke-width="1.56863"/>
<path d="M991.727 1452.67C998.027 1460.53 1000.76 1470.67 999.276 1480.63L984.467 1579.82C982.92 1590.19 976.954 1599.37 968.114 1604.99L671.673 1793.58C658.027 1802.26 640.277 1800.83 628.205 1790.07L368.046 1558.15C360.638 1551.55 356.27 1542.19 355.966 1532.27L355.521 1517.81C355.213 1507.78 359.088 1498.07 366.217 1491.01L520.61 1338.09C527.535 1331.23 536.937 1327.45 546.683 1327.62L879.385 1333.41C890.134 1333.6 900.243 1338.56 906.967 1346.95L991.727 1452.67Z" stroke="rgba(255,255,255,0.1)" stroke-width="1.56863"/>
<path d="M355.995 1533.27C356.281 1542.6 352.948 1551.68 346.693 1558.61L212.083 1707.71C206.228 1714.2 198.223 1718.35 189.548 1719.39L-105.498 1754.75C-121.728 1756.69 -137.244 1747.51 -143.345 1732.35L-259.103 1444.63C-264.896 1430.23 -260.854 1413.74 -249.058 1403.66L-105.284 1280.71C-99.5503 1275.8 -92.4258 1272.82 -84.909 1272.16L98.8719 1256.23C109.726 1255.29 120.426 1259.29 127.997 1267.12L345.327 1492.03C351.575 1498.5 355.19 1507.06 355.466 1516.05L355.995 1533.27Z" stroke="rgba(255,255,255,0.1)" stroke-width="1.56863"/>
<path d="M1121.01 1799.98C1119.05 1783.04 1129.19 1767.03 1145.35 1761.57L1346.49 1693.55C1357.08 1689.97 1368.73 1691.49 1378.04 1697.66L1582.1 1832.85C1594.89 1841.33 1600.94 1856.95 1597.19 1871.83L1536.31 2113.34C1532.94 2126.71 1522.27 2137 1508.78 2139.87L1255.58 2193.79C1245.28 2195.98 1234.54 2193.57 1226.16 2187.2L1172.27 2146.22C1164.44 2140.26 1159.37 2131.37 1158.24 2121.6L1121.01 1799.98Z" stroke="rgba(255,255,255,0.1)" stroke-width="1.56863"/>
<path d="M1111.46 1762.96C1115.51 1768.18 1118.05 1774.41 1118.81 1780.97L1155.4 2097.11C1157.87 2118.4 1141.39 2137.14 1119.96 2137.42L713.932 2142.76C695.115 2143 679.255 2128.78 677.464 2110.04L650.718 1830.31C649.424 1816.78 655.832 1803.66 667.303 1796.36L954.245 1613.82C969.992 1603.8 990.778 1607.41 1002.22 1622.16L1111.46 1762.96Z" stroke="rgba(255,255,255,0.1)" stroke-width="1.56863"/>
<path d="M679.323 2129.45C680.169 2138.3 677.726 2147.15 672.46 2154.31L667.509 2161.05C657.785 2174.27 640.371 2179.29 625.102 2173.26L231.699 2017.95C218.159 2012.6 209.145 1999.66 208.828 1985.11L203.319 1732.13C203.118 1722.91 206.449 1713.96 212.629 1707.11L332.369 1574.48C345.69 1559.72 368.426 1558.49 383.266 1571.72L638.029 1798.82C644.832 1804.89 649.094 1813.3 649.962 1822.37L679.323 2129.45Z" stroke="rgba(255,255,255,0.1)" stroke-width="1.56863"/>
<path d="M209.067 1996.26C209.249 2004.58 206.551 2012.71 201.431 2019.28L5.38053 2270.67C-9.11477 2289.26 -37.2332 2289.23 -51.6894 2270.61L-250.412 2014.68C-259.293 2003.25 -260.493 1987.61 -253.463 1974.96L-141.971 1774.19C-136.339 1764.05 -126.183 1757.23 -114.665 1755.85L163.42 1722.52C184.628 1719.98 203.406 1736.28 203.871 1757.63L209.067 1996.26Z" stroke="rgba(255,255,255,0.1)" stroke-width="1.56863"/>
<path d="M1513.04 2138.96C1524.22 2136.58 1535.87 2139.62 1544.45 2147.17L1578.95 2177.5C1583.8 2181.77 1587.42 2187.25 1589.43 2193.39L1713.31 2571.16C1715.55 2577.99 1715.21 2585.39 1712.37 2591.99V2591.99C1707.53 2603.21 1696.28 2610.28 1684.08 2609.76L1245.6 2591.2C1233.76 2590.7 1222.91 2584.43 1216.58 2574.41L1189.22 2531.17C1184.38 2523.54 1182.59 2514.37 1184.18 2505.47L1235.08 2221.17C1237.67 2206.7 1248.76 2195.24 1263.14 2192.18L1513.04 2138.96Z" stroke="rgba(255,255,255,0.1)" stroke-width="1.56863"/>
<path d="M669.974 2157.69C676.688 2148.56 687.296 2143.11 698.629 2142.96L1147.56 2137.06C1155.63 2136.96 1163.5 2139.55 1169.92 2144.43L1221.76 2183.86C1232.57 2192.07 1237.86 2205.65 1235.47 2219.01L1185.29 2499.27C1183.06 2511.71 1174.51 2522.08 1162.73 2526.63L974.576 2599.3C959.468 2605.13 942.322 2600.21 932.612 2587.24L654.318 2215.73C648.496 2207.95 646.703 2197.88 649.485 2188.58V2188.58C650.493 2185.21 652.072 2182.04 654.155 2179.21L669.974 2157.69Z" stroke="rgba(255,255,255,0.1)" stroke-width="1.56863"/>
<path d="M645.96 2200.36C645.365 2202.35 644.452 2204.23 643.255 2205.93L392.491 2561.33C387.493 2568.41 380.116 2573.46 371.705 2575.56L262.452 2602.84C252.584 2605.3 242.134 2603.49 233.666 2597.86L10.1301 2449.14C1.6318 2443.48 -4.08076 2434.5 -5.59736 2424.41L-20.8834 2322.66C-22.3567 2312.86 -19.7378 2302.88 -13.6394 2295.06L192.717 2030.45C202.579 2017.81 219.591 2013.17 234.506 2019.06L634.622 2177.02C643.889 2180.68 648.815 2190.82 645.96 2200.36V2200.36Z" stroke="rgba(255,255,255,0.1)" stroke-width="1.56863"/>
<path d="M616.394 2244C630.55 2223.94 660.156 2223.52 674.876 2243.17L933.905 2588.97C942.993 2601.1 943.549 2617.61 935.299 2630.33L793.951 2848.17C782.32 2866.1 757.763 2870.08 741.063 2856.75L411.376 2593.57C396.419 2581.63 393.357 2560.1 404.39 2544.46L616.394 2244Z" stroke="rgba(255,255,255,0.1)" stroke-width="1.56863"/>
<path d="M227.007 2593.43C239.102 2601.48 245.206 2615.98 242.506 2630.25L147.535 3132.25C144.301 3149.35 129.348 3161.72 111.949 3161.69L-37.1354 3161.44C-48.0388 3161.43 -58.3519 3156.49 -65.2031 3148.01L-254.832 2913.24C-263.487 2902.52 -265.302 2887.82 -259.513 2875.32L-82.7535 2493.7C-79.6161 2486.93 -74.459 2481.29 -67.9902 2477.56L-22.6322 2451.44C-10.7369 2444.59 4.01218 2445.07 15.441 2452.67L227.007 2593.43Z" stroke="rgba(255,255,255,0.1)" stroke-width="1.56863"/>
</svg>
